<svg width="130" height="130" viewBox="0 0 130 130" fill="none" xmlns="http://www.w3.org/2000/svg">
<circle cx="65" cy="65" r="65" fill="black"/>
<path d="M36.8401 41.5999H23.8801V91.9999H37.9921C52.6081 91.9999 64.2721 84.4399 64.2721 66.7279C64.2721 48.6559 51.0961 41.5999 36.8401 41.5999ZM37.9921 84.9439H31.6561V48.6559H36.8401C47.8561 48.6559 56.1361 53.3359 56.1361 66.7279C56.1361 79.8319 49.2241 84.9439 37.9921 84.9439ZM85.9734 41.0239C76.7574 41.0239 69.7014 46.7839 69.7014 54.1999C69.7014 60.8959 75.1014 65.7919 84.8214 68.6719C90.7974 70.5439 96.7014 72.0559 96.7014 77.1679C96.7014 82.1359 93.7494 85.6639 86.3334 85.6639C77.5494 85.6639 73.9494 81.1999 72.6534 74.7199L65.3814 78.3919C68.1174 86.5279 74.3094 92.5039 86.3334 92.5039C98.9334 92.5039 104.693 85.3039 104.693 77.1679C104.693 67.0159 93.2454 63.9919 87.1254 62.1199C80.3574 60.1039 77.6214 57.5119 77.6214 54.1999C77.6214 50.5279 80.9334 47.7199 85.9734 47.7199C91.2294 47.7199 94.2534 50.0239 94.2534 54.1279L102.029 52.1119C100.949 44.6959 93.8934 41.0239 85.9734 41.0239Z" fill="white"/>
</svg>
